<svg xmlns="http://www.w3.org/2000/svg" viewBox="0 0 392 36"><defs><style>.cls-1{fill:#317a3c;}.cls-2{fill:#fefeff;}.cls-3{fill:#9c3232;}</style></defs><title>Asset 1</title><g id="Layer_2" data-name="Layer 2"><g id="Layer_1-2" data-name="Layer 1"><path class="cls-1" d="M0,18,30,0V36Z"/><path class="cls-1" d="M30,0H196V36H30Z"/><path class="cls-2" d="M151,20.49V25h-2.64V12.2h5a5.78,5.78,0,0,1,2.53.53,3.84,3.84,0,0,1,1.68,1.5,4.11,4.11,0,0,1,.59,2.21,3.69,3.69,0,0,1-1.29,3,5.35,5.35,0,0,1-3.56,1.08Zm0-2.13h2.36a2.31,2.31,0,0,0,1.59-.5,1.75,1.75,0,0,0,.55-1.4,2.09,2.09,0,0,0-.55-1.52,2.05,2.05,0,0,0-1.53-.6H151Z"/><path class="cls-2" d="M164.69,20.32h-2.1V25H160V12.2h4.76a5.41,5.41,0,0,1,3.5,1,3.51,3.51,0,0,1,1.23,2.86,4,4,0,0,1-.57,2.19,3.91,3.91,0,0,1-1.72,1.39l2.77,5.23V25h-2.83Zm-2.1-2.14h2.13a2.23,2.23,0,0,0,1.54-.5,1.84,1.84,0,0,0,.54-1.4,1.9,1.9,0,0,0-.52-1.42,2.09,2.09,0,0,0-1.57-.52h-2.12Z"/><path class="cls-2" d="M182,18.89a7.69,7.69,0,0,1-.67,3.32,5,5,0,0,1-1.91,2.19,5.25,5.25,0,0,1-2.85.78,5.33,5.33,0,0,1-2.84-.77,5.07,5.07,0,0,1-1.93-2.18,7.56,7.56,0,0,1-.7-3.27v-.63a7.69,7.69,0,0,1,.68-3.32,5.14,5.14,0,0,1,1.92-2.21,5.39,5.39,0,0,1,2.85-.77,5.3,5.3,0,0,1,2.84.77A5,5,0,0,1,181.27,15a7.53,7.53,0,0,1,.69,3.31Zm-2.67-.58a5.4,5.4,0,0,0-.72-3.06,2.56,2.56,0,0,0-4.11,0,5.37,5.37,0,0,0-.73,3v.62a5.44,5.44,0,0,0,.73,3,2.53,2.53,0,0,0,4.11.05,5.52,5.52,0,0,0,.72-3Z"/><path class="cls-2" d="M190.51,21.64A1.33,1.33,0,0,0,190,20.5a6.85,6.85,0,0,0-1.9-.84,14.1,14.1,0,0,1-2.17-.88,3.55,3.55,0,0,1-2.18-3.18,3.05,3.05,0,0,1,.58-1.84A3.84,3.84,0,0,1,186,12.48a6.51,6.51,0,0,1,2.47-.45,5.63,5.63,0,0,1,2.44.5,3.82,3.82,0,0,1,1.66,1.4,3.6,3.6,0,0,1,.6,2.05h-2.64a1.71,1.71,0,0,0-.55-1.36,2.26,2.26,0,0,0-1.56-.49,2.45,2.45,0,0,0-1.5.41,1.28,1.28,0,0,0-.54,1.07,1.23,1.23,0,0,0,.63,1.05,7.37,7.37,0,0,0,1.85.79,8,8,0,0,1,3.28,1.68,3.33,3.33,0,0,1,1,2.5,3.11,3.11,0,0,1-1.26,2.61,5.56,5.56,0,0,1-3.38.94,6.53,6.53,0,0,1-2.69-.54A4.3,4.3,0,0,1,184,23.15a3.8,3.8,0,0,1-.63-2.18H186c0,1.42.84,2.12,2.53,2.12a2.44,2.44,0,0,0,1.47-.38A1.24,1.24,0,0,0,190.51,21.64Z"/><path class="cls-3" d="M392,18,362,0V36Z"/><path class="cls-3" d="M362,0H196V36H362Z"/><path class="cls-2" d="M209.19,20.74A4.46,4.46,0,0,1,207.66,24,5.33,5.33,0,0,1,204,25.18a4.8,4.8,0,0,1-3.87-1.66A6.79,6.79,0,0,1,198.76,19v-.78a7.69,7.69,0,0,1,.65-3.25,4.88,4.88,0,0,1,1.86-2.16,5.83,5.83,0,0,1,6.38.43,4.89,4.89,0,0,1,1.56,3.33h-2.64a2.62,2.62,0,0,0-.69-1.79,2.54,2.54,0,0,0-1.8-.56,2.26,2.26,0,0,0-2,1,5.41,5.41,0,0,0-.67,2.93v1a5.61,5.61,0,0,0,.63,3,2.2,2.2,0,0,0,2,1,2.59,2.59,0,0,0,1.82-.55,2.51,2.51,0,0,0,.7-1.73Z"/><path class="cls-2" d="M221.44,18.89a7.84,7.84,0,0,1-.67,3.32,5,5,0,0,1-1.92,2.19,5.2,5.2,0,0,1-2.84.78,5.33,5.33,0,0,1-2.84-.77,5.15,5.15,0,0,1-1.94-2.18,7.56,7.56,0,0,1-.69-3.27v-.63a7.69,7.69,0,0,1,.68-3.32,5,5,0,0,1,1.92-2.21,5.64,5.64,0,0,1,5.69,0A5,5,0,0,1,220.75,15a7.53,7.53,0,0,1,.69,3.31Zm-2.67-.58a5.4,5.4,0,0,0-.73-3.06,2.55,2.55,0,0,0-4.1,0,5.37,5.37,0,0,0-.73,3v.62a5.44,5.44,0,0,0,.72,3A2.34,2.34,0,0,0,216,23a2.31,2.31,0,0,0,2-1,5.43,5.43,0,0,0,.73-3Z"/><path class="cls-2" d="M233.76,25h-2.64L226,16.58V25h-2.64V12.2H226l5.14,8.44V12.2h2.63Z"/><path class="cls-2" d="M242.7,21.64a1.34,1.34,0,0,0-.53-1.14,6.57,6.57,0,0,0-1.9-.84,14.54,14.54,0,0,1-2.17-.88,3.57,3.57,0,0,1-2.18-3.18,3.12,3.12,0,0,1,.58-1.84,3.87,3.87,0,0,1,1.68-1.28,6.42,6.42,0,0,1,2.46-.45,5.65,5.65,0,0,1,2.45.5,3.87,3.87,0,0,1,1.66,1.4,3.6,3.6,0,0,1,.59,2.05h-2.63a1.71,1.71,0,0,0-.56-1.36,2.24,2.24,0,0,0-1.55-.49,2.41,2.41,0,0,0-1.5.41,1.28,1.28,0,0,0-.54,1.07,1.24,1.24,0,0,0,.62,1.05,7.3,7.3,0,0,0,1.86.79,8,8,0,0,1,3.28,1.68,3.36,3.36,0,0,1,1,2.5,3.1,3.1,0,0,1-1.25,2.61,5.59,5.59,0,0,1-3.39.94,6.56,6.56,0,0,1-2.69-.54,4.33,4.33,0,0,1-1.85-1.49,3.8,3.8,0,0,1-.63-2.18h2.64c0,1.42.85,2.12,2.53,2.12a2.42,2.42,0,0,0,1.47-.38A1.24,1.24,0,0,0,242.7,21.64Z"/></g></g></svg>